<svg xmlns="http://www.w3.org/2000/svg" xmlns:xlink="http://www.w3.org/1999/xlink" width="200" zoomAndPan="magnify" viewBox="0 0 150 149.999998" height="200" preserveAspectRatio="xMidYMid meet" version="1.0"><defs><g/></defs><g fill="#000000" fill-opacity="1"><g transform="translate(39.684274, 84.225428)"><g><path d="M 12.421875 0 L 12.421875 -8.4375 L 6.515625 -8.4375 L 6.515625 0 L 1.84375 0 L 1.84375 -19.703125 L 6.515625 -19.703125 L 6.515625 -12.078125 L 12.421875 -12.078125 L 12.421875 -19.703125 L 17.078125 -19.703125 L 17.078125 0 Z M 12.421875 0 "/></g></g></g><g fill="#000000" fill-opacity="1"><g transform="translate(58.618253, 84.225428)"><g><path d="M 6.25 -15.09375 L 6.25 0 L 1.765625 0 L 1.765625 -15.09375 Z M 3.96875 -23.046875 C 4.75 -23.046875 5.390625 -22.800781 5.890625 -22.3125 C 6.390625 -21.832031 6.640625 -21.222656 6.640625 -20.484375 C 6.640625 -19.753906 6.390625 -19.144531 5.890625 -18.65625 C 5.390625 -18.175781 4.75 -17.9375 3.96875 -17.9375 C 3.195312 -17.9375 2.5625 -18.175781 2.0625 -18.65625 C 1.570312 -19.144531 1.328125 -19.753906 1.328125 -20.484375 C 1.328125 -21.222656 1.570312 -21.832031 2.0625 -22.3125 C 2.5625 -22.800781 3.195312 -23.046875 3.96875 -23.046875 Z M 3.96875 -23.046875 "/></g></g></g><g fill="#000000" fill-opacity="1"><g transform="translate(66.635342, 84.225428)"><g><path d="M 15.65625 -14.21875 C 14.675781 -13.8125 13.226562 -13.609375 11.3125 -13.609375 C 12.300781 -13.191406 13.019531 -12.679688 13.46875 -12.078125 C 13.925781 -11.472656 14.15625 -10.6875 14.15625 -9.71875 C 14.15625 -8.75 13.898438 -7.878906 13.390625 -7.109375 C 12.878906 -6.347656 12.144531 -5.75 11.1875 -5.3125 C 10.226562 -4.875 9.101562 -4.65625 7.8125 -4.65625 C 7.207031 -4.65625 6.628906 -4.710938 6.078125 -4.828125 C 5.929688 -4.753906 5.8125 -4.632812 5.71875 -4.46875 C 5.632812 -4.3125 5.59375 -4.148438 5.59375 -3.984375 C 5.59375 -3.691406 5.703125 -3.460938 5.921875 -3.296875 C 6.140625 -3.140625 6.582031 -3.0625 7.25 -3.0625 L 9.515625 -3.0625 C 10.671875 -3.0625 11.6875 -2.875 12.5625 -2.5 C 13.4375 -2.125 14.109375 -1.601562 14.578125 -0.9375 C 15.054688 -0.269531 15.296875 0.476562 15.296875 1.3125 C 15.296875 2.882812 14.617188 4.109375 13.265625 4.984375 C 11.910156 5.867188 9.953125 6.3125 7.390625 6.3125 C 5.546875 6.3125 4.09375 6.113281 3.03125 5.71875 C 1.976562 5.332031 1.238281 4.789062 0.8125 4.09375 C 0.382812 3.394531 0.171875 2.515625 0.171875 1.453125 L 4.203125 1.453125 C 4.203125 1.898438 4.289062 2.253906 4.46875 2.515625 C 4.65625 2.785156 4.984375 2.988281 5.453125 3.125 C 5.929688 3.257812 6.613281 3.328125 7.5 3.328125 C 8.726562 3.328125 9.578125 3.175781 10.046875 2.875 C 10.523438 2.582031 10.765625 2.164062 10.765625 1.625 C 10.765625 1.164062 10.582031 0.800781 10.21875 0.53125 C 9.863281 0.269531 9.328125 0.140625 8.609375 0.140625 L 6.421875 0.140625 C 4.867188 0.140625 3.707031 -0.132812 2.9375 -0.6875 C 2.175781 -1.25 1.796875 -1.96875 1.796875 -2.84375 C 1.796875 -3.394531 1.953125 -3.929688 2.265625 -4.453125 C 2.585938 -4.972656 3.023438 -5.398438 3.578125 -5.734375 C 2.628906 -6.253906 1.941406 -6.859375 1.515625 -7.546875 C 1.085938 -8.234375 0.875 -9.070312 0.875 -10.0625 C 0.875 -11.75 1.476562 -13.085938 2.6875 -14.078125 C 3.90625 -15.078125 5.507812 -15.578125 7.5 -15.578125 C 9.019531 -15.535156 10.304688 -15.6875 11.359375 -16.03125 C 12.410156 -16.375 13.492188 -16.875 14.609375 -17.53125 Z M 7.609375 -12.625 C 6.910156 -12.625 6.359375 -12.398438 5.953125 -11.953125 C 5.546875 -11.503906 5.34375 -10.894531 5.34375 -10.125 C 5.34375 -9.300781 5.546875 -8.664062 5.953125 -8.21875 C 6.359375 -7.78125 6.910156 -7.5625 7.609375 -7.5625 C 8.347656 -7.5625 8.910156 -7.78125 9.296875 -8.21875 C 9.691406 -8.65625 9.890625 -9.304688 9.890625 -10.171875 C 9.890625 -11.804688 9.128906 -12.625 7.609375 -12.625 Z M 7.609375 -12.625 "/></g></g></g><g fill="#000000" fill-opacity="1"><g transform="translate(82.299943, 84.225428)"><g><path d="M 8.296875 -15.578125 C 10.609375 -15.578125 12.414062 -14.867188 13.71875 -13.453125 C 15.03125 -12.046875 15.6875 -10.070312 15.6875 -7.53125 C 15.6875 -5.914062 15.382812 -4.503906 14.78125 -3.296875 C 14.1875 -2.097656 13.335938 -1.164062 12.234375 -0.5 C 11.128906 0.15625 9.816406 0.484375 8.296875 0.484375 C 6.003906 0.484375 4.195312 -0.21875 2.875 -1.625 C 1.5625 -3.039062 0.90625 -5.019531 0.90625 -7.5625 C 0.90625 -9.164062 1.203125 -10.566406 1.796875 -11.765625 C 2.398438 -12.972656 3.253906 -13.910156 4.359375 -14.578125 C 5.472656 -15.242188 6.785156 -15.578125 8.296875 -15.578125 Z M 8.296875 -12.28125 C 7.390625 -12.28125 6.707031 -11.894531 6.25 -11.125 C 5.800781 -10.351562 5.578125 -9.164062 5.578125 -7.5625 C 5.578125 -5.914062 5.796875 -4.710938 6.234375 -3.953125 C 6.679688 -3.191406 7.367188 -2.8125 8.296875 -2.8125 C 9.203125 -2.8125 9.882812 -3.191406 10.34375 -3.953125 C 10.800781 -4.722656 11.03125 -5.914062 11.03125 -7.53125 C 11.03125 -9.175781 10.804688 -10.378906 10.359375 -11.140625 C 9.910156 -11.898438 9.222656 -12.28125 8.296875 -12.28125 Z M 8.296875 -12.28125 "/></g></g></g><g fill="#000000" fill-opacity="1"><g transform="translate(98.902713, 84.225428)"><g><path d="M 9.953125 -15.515625 C 10.492188 -15.515625 10.992188 -15.445312 11.453125 -15.3125 L 10.75 -10.96875 C 10.175781 -11.101562 9.71875 -11.171875 9.375 -11.171875 C 8.488281 -11.171875 7.8125 -10.863281 7.34375 -10.25 C 6.882812 -9.632812 6.519531 -8.707031 6.25 -7.46875 L 6.25 0 L 1.765625 0 L 1.765625 -15.09375 L 5.6875 -15.09375 L 6.046875 -12.171875 C 6.390625 -13.210938 6.90625 -14.03125 7.59375 -14.625 C 8.289062 -15.21875 9.078125 -15.515625 9.953125 -15.515625 Z M 9.953125 -15.515625 "/></g></g></g></svg>